<svg width="78" height="76" viewBox="0 0 78 76" fill="none" xmlns="http://www.w3.org/2000/svg">
<g id="game-icons:pirate-captain">
<g id="Group 9">
<path id="Vector" d="M31.1465 3.90527C23.8723 8.35297 21.1767 14.1624 18.2956 20.8708C15.3584 27.7096 12.2693 35.4191 4.10645 42.5222C5.03181 44.1282 7.11841 45.6839 10.108 47.0064C11.7468 45.6289 13.391 44.0849 14.9538 42.5363L10.0011 43.4973L9.46399 40.893C12.8999 40.1099 16.547 39.5186 19.7124 38.9044C19.9405 37.0974 20.2802 35.6236 20.8283 34.0292C26.8397 32.6968 33.4574 30.3513 38.9306 30.296C46.4458 30.9587 51.4463 32.4809 57.0988 34.0473C57.5303 35.6813 57.8721 37.4416 58.052 38.8857C61.3198 39.3124 64.8797 40.2105 68.3973 40.893L67.8601 43.4973L62.9074 42.5363C64.4703 44.0849 66.1145 45.6289 67.7532 47.0065C70.7429 45.6839 72.8294 44.1282 73.7548 42.5222C65.592 35.4192 62.5029 27.7096 59.5656 20.8708C56.6846 14.1624 53.9891 8.35297 46.715 3.90527C45.0498 6.49966 42.1287 10.4189 38.9306 10.4754C35.2304 10.0465 32.9227 6.72538 31.1463 3.90527H31.1465ZM26.0044 10.918H28.7417V13.4025L33.1874 15.7549C34.4983 13.8206 36.5387 12.5409 38.9306 12.5409C41.3226 12.5409 43.363 13.8206 44.6738 15.7549L49.1195 13.4025V10.918H51.8569V13.131H54.138V15.7866H50.33L45.82 18.1734C46.2346 19.7075 46.3355 21.1324 46.0912 22.5832L53.8787 26.7041H57.1794V29.3597H54.8983V31.5727H52.161V28.82L45.2491 25.1625C44.0122 27.6352 41.7079 29.3597 38.9306 29.3597C36.1533 29.3597 33.8491 27.6352 32.6121 25.1624L25.7002 28.8202V31.5729H22.9629V29.3599H20.6818V26.7043H23.9826L31.7703 22.5833C31.5239 21.1046 31.6462 19.5034 32.0413 18.1736L27.5311 15.7868H23.7233V13.1312H26.0044V10.918ZM38.9306 15.1965C36.5654 15.1965 34.3684 17.6222 34.3684 20.9503C34.3684 24.2784 36.5654 26.7041 38.9306 26.7041C41.2958 26.7041 43.4928 24.2784 43.4928 20.9503C43.4928 17.6222 41.2958 15.1965 38.9306 15.1965ZM35.1288 18.5898H37.8661V20.9503H35.1288V18.5898ZM39.9951 18.5898H42.7325V20.9503H39.9951V18.5898ZM36.4975 21.983H41.3638V24.6386H36.4975V21.983ZM23.0128 36.1869C22.8258 36.8549 22.6787 37.5996 22.565 38.4013C34.3928 35.9691 43.1458 35.9154 55.2055 38.3886C55.0959 37.6364 54.9628 36.8963 54.7989 36.1734C42.4014 31.9206 35.4267 31.9454 23.0128 36.1869ZM22.3191 41.1177C22.2546 42.5134 22.2681 44.021 22.346 45.5909C23.0688 45.5967 23.7671 45.5955 24.4487 45.5895C25.4508 43.6777 32.6302 42.0647 35.9444 44.6461C40.6623 43.7575 44.1165 42.2354 47.5374 40.0394C38.8972 38.5394 29.0506 40.1849 22.3191 41.1177ZM37.0518 47.0771C36.632 51.2242 33.6955 53.9979 29.1979 53.9979C26.5503 53.9979 24.9327 51.735 24.4703 48.2411C23.8381 48.2479 23.1962 48.2514 22.5332 48.2474C23.0286 52.9327 23.9065 57.9527 24.8461 62.0876C26.7972 61.9291 29.4656 60.9244 31.8788 59.6238C34.187 58.3798 36.3139 56.8721 37.5142 55.8294C36.4299 55.7386 35.3634 55.5515 34.3189 55.2805L35.0263 52.7154C37.5679 53.3751 40.1121 53.4598 42.8175 52.7198L43.5599 55.2758C42.5124 55.5624 41.4387 55.7497 40.3539 55.8351C41.5554 56.8776 43.6788 58.3821 45.9824 59.6238C48.404 60.9289 51.083 61.9365 53.0356 62.0898C54.6308 55.3575 55.9304 47.8456 55.4894 41.1105L52.1572 40.6487C49.3843 42.1213 42.9668 45.853 37.0518 47.0771ZM58.287 41.6399C58.3546 42.9393 58.368 44.253 58.3259 45.5758C59.4804 46.9039 60.8114 48.2215 62.3169 49.5314C61.8558 49.2812 61.3345 49.1293 60.77 49.1293C58.061 49.433 56.9317 51.8262 56.9092 53.9979C56.996 56.3577 58.4135 58.8151 60.77 58.8665C61.0316 58.8665 61.2833 58.8326 61.5248 58.7728C62.3277 61.8828 63.5855 64.1343 66.1369 66.0558C62.8794 68.359 56.4744 68.5794 53.0547 68.1995C52.2523 68.9787 51.427 69.7355 50.5797 70.4688C57.6919 71.3304 67.3437 71.3707 69.9052 65.3232C66.905 63.6371 64.8457 60.8346 64.23 58.4112C68.3837 59.3013 71.8671 56.9553 71.9305 53.2873C66.7499 51.6373 60.8292 43.8613 58.287 41.6399ZM19.5311 41.6483C15.0399 46.3584 10.3986 50.3976 5.15119 53.7915C8.22064 57.036 13.2818 57.3762 16.5863 56.4999C12.5629 62.5205 9.58397 65.0878 4.21214 68.5623C11.7007 70.6317 20.673 72.0747 27.3259 70.5075C26.4954 69.7898 25.686 69.0495 24.8988 68.2873C20.0819 68.8715 14.896 68.5547 10.4117 67.6082C16.1058 63.3006 18.4752 58.8837 20.614 54.7373C20.4744 53.8742 20.3456 53.0095 20.2277 52.1434L18.8533 52.8102C15.2958 54.5358 11.9302 54.7594 9.77148 53.9474C13.8435 51.1671 17.1191 48.3672 19.5842 45.5192C19.5147 44.1866 19.4967 42.8936 19.5314 41.6483H19.5311ZM51.0413 44.5557L52.9766 46.4335C52.0029 47.3783 50.8179 47.9997 49.5758 48.409V50.8997H44.7094V49.1667C43.7658 49.198 42.9222 49.183 42.2762 49.183V46.5273C44.7094 46.5273 49.2534 46.2903 51.0413 44.5557ZM63.4935 50.523C65.154 51.8842 67.0018 53.2382 69.0399 54.588C68.0864 56.2419 65.7419 56.1098 64.3926 55.7163C64.8544 53.9998 64.4686 51.8116 63.4935 50.523ZM60.77 51.7849C61.6222 52.0669 61.8852 53.2524 61.8937 53.9979C61.8275 54.5969 61.6584 56.1917 60.77 56.2109C59.918 55.9288 59.6549 54.7432 59.6465 53.9979C59.7127 53.3989 59.8818 51.804 60.77 51.7849ZM38.9306 58.8829C37.9773 60.149 36.7808 61.3372 35.4512 62.4049C36.813 61.9305 37.8266 61.6614 38.9341 61.6642C40.0459 61.6671 41.0581 61.9417 42.4239 62.4161C41.0887 61.3456 39.8873 60.1534 38.9306 58.8829ZM44.0661 63.6273L43.3176 65.5688C41.4628 64.896 40.3937 64.5257 39.6034 64.386L44.5829 71.6321C46.8331 70.1829 48.7981 68.5351 50.6771 66.7492C48.1405 65.9435 45.9634 64.9139 44.0661 63.6274V63.6273ZM33.7921 63.6293C31.7178 64.9292 29.3091 66.1958 27.1845 66.7492C29.1779 68.613 31.094 70.2403 33.2784 71.6321L38.2615 64.3806C37.4729 64.5151 36.4088 64.8829 34.5495 65.5667L33.7921 63.6293Z" fill="#F8F8F8"/>
</g>
</g>
</svg>
